<svg xmlns="http://www.w3.org/2000/svg" width="40" height="39" viewBox="0 0 40 39" fill="none"><path d="M35.8858 0.904663H4.45724C2.87928 0.904663 1.6001 2.18385 1.6001 3.76181V35.1904C1.6001 36.7683 2.87928 38.0475 4.45724 38.0475H35.8858C37.4638 38.0475 38.743 36.7683 38.743 35.1904V3.76181C38.743 2.18385 37.4638 0.904663 35.8858 0.904663Z" stroke="currentColor" stroke-width="1.5" stroke-linecap="round" stroke-linejoin="round"></path><path d="M20.1714 32.3333C25.6942 32.3333 30.1714 27.8561 30.1714 22.3333C30.1714 16.8104 25.6942 12.3333 20.1714 12.3333C14.6485 12.3333 10.1714 16.8104 10.1714 22.3333C10.1714 27.8561 14.6485 32.3333 20.1714 32.3333Z" stroke="currentColor" stroke-width="1.5" stroke-linecap="round" stroke-linejoin="round"></path><path d="M1.6001 9.47607H10.1715" stroke="currentColor" stroke-width="1.5" stroke-linecap="round" stroke-linejoin="round"></path><path d="M30.1714 9.47607H38.7428" stroke="currentColor" stroke-width="1.5" stroke-linecap="round" stroke-linejoin="round"></path><path d="M20.1714 22.2476V32.2476" stroke="currentColor" stroke-width="1.5" stroke-linecap="round" stroke-linejoin="round"></path><path d="M11.6001 17.1904L20.1715 22.2475" stroke="currentColor" stroke-width="1.5" stroke-linecap="round" stroke-linejoin="round"></path><path d="M28.7428 17.1904L20.1714 22.2475" stroke="currentColor" stroke-width="1.5" stroke-linecap="round" stroke-linejoin="round"></path></svg>