<svg xmlns="http://www.w3.org/2000/svg" width="40" height="39" viewBox="0 0 40 39" fill="none"><path d="M21.5145 19.1904C21.0907 19.3744 20.6336 19.4693 20.1716 19.4693C19.7096 19.4693 19.2525 19.3744 18.8287 19.1904L2.54303 11.6475C2.27858 11.5141 2.05634 11.3099 1.90106 11.0577C1.74579 10.8055 1.66357 10.5151 1.66357 10.2189C1.66357 9.9227 1.74579 9.6324 1.90106 9.3801C2.05634 9.1279 2.27858 8.92374 2.54303 8.79035L18.8287 1.19035C19.2525 1.00633 19.7096 0.911377 20.1716 0.911377C20.6336 0.911377 21.0907 1.00633 21.5145 1.19035L37.8002 8.73321C38.0646 8.86659 38.2869 9.0708 38.4421 9.323C38.5974 9.5752 38.6796 9.8656 38.6796 10.1618C38.6796 10.458 38.5974 10.7483 38.4421 11.0006C38.2869 11.2528 38.0646 11.457 37.8002 11.5904L21.5145 19.1904Z" fill="none" stroke="currentColor" stroke-width="1.5" stroke-linecap="round" stroke-linejoin="round"></path><path d="M38.743 20.4761L21.3144 28.5046C20.9422 28.6744 20.5378 28.7623 20.1287 28.7623C19.7195 28.7623 19.3152 28.6744 18.943 28.5046L1.6001 20.4761" fill="none" stroke="currentColor" stroke-width="1.5" stroke-linecap="round" stroke-linejoin="round"></path><path d="M38.743 29.7618L21.3144 37.7903C20.9422 37.9601 20.5378 38.048 20.1287 38.048C19.7195 38.048 19.3152 37.9601 18.943 37.7903L1.6001 29.7618" fill="none" stroke="currentColor" stroke-width="1.5" stroke-linecap="round" stroke-linejoin="round"></path></svg>